<svg width="256px" height="256px" viewBox="0 0 24.00 24.00" fill="none" xmlns="http://www.w3.org/2000/svg"><g id="SVGRepo_bgCarrier" stroke-width="0" transform="translate(8.76,8.76), scale(0.27)"><path transform="translate(0, 0), scale(0.75)" d="M16,24.901198647088474C19.236565987687435,25.905530698831072,22.37220064879581,30.532089761021084,25.185046310444413,28.642131680386147C27.948667620237856,26.785247565671597,23.901105835152634,22.068076424995233,24.92957493010315,18.90139477377809C25.957791217935437,15.735491521898894,31.58229460975604,14.421179405675012,30.858952948704207,11.172033521567982C30.163338158861965,8.047432723580835,25.06441247297295,8.954569637648262,22.340739412111603,7.272720910750575C19.942565845995055,5.791865804823408,18.803276842738434,2.28966457779127,16,1.9967358476585808C13.171647172279316,1.7011867996444416,10.766515585328854,3.9763999099893788,8.617381268599981,5.838697052369179C6.628350873653871,7.562258763604006,5.346185277460922,9.78985156118514,4.246904897625715,12.181187909540085C2.9962779446980825,14.901758335091177,0.4829309335901495,17.92994431182119,1.8297937626676344,20.604179106191665C3.2168155082008245,23.35815058151548,7.2437384738231625,23.095648506605283,10.194582272303121,23.990472001184823C12.116120227666164,24.57316543587998,14.082264506974425,24.30611013978257,16,24.901198647088474" fill="#000000" strokewidth="0"></path></g><g id="SVGRepo_tracerCarrier" stroke-linecap="round" stroke-linejoin="round"></g><g id="SVGRepo_iconCarrier"> <path d="M21.9844 10C21.9473 8.68893 21.8226 7.85305 21.4026 7.13974C20.8052 6.12523 19.7294 5.56066 17.5777 4.43152L15.5777 3.38197C13.8221 2.46066 12.9443 2 12 2C11.0557 2 10.1779 2.46066 8.42229 3.38197L6.42229 4.43152C4.27063 5.56066 3.19479 6.12523 2.5974 7.13974C2 8.15425 2 9.41667 2 11.9415V12.0585C2 14.5833 2 15.8458 2.5974 16.8603C3.19479 17.8748 4.27063 18.4393 6.42229 19.5685L8.42229 20.618C10.1779 21.5393 11.0557 22 12 22C12.9443 22 13.8221 21.5393 15.5777 20.618L17.5777 19.5685C19.7294 18.4393 20.8052 17.8748 21.4026 16.8603C21.8226 16.1469 21.9473 15.3111 21.9844 14" stroke="#000000" stroke-width="1.56" stroke-linecap="round"></path> <path d="M21 7.5L17 9.5M12 12L3 7.5M12 12V21.5M12 12C12 12 14.7426 10.6287 16.5 9.75C16.6953 9.65237 17 9.5 17 9.5M17 9.5V13M17 9.5L7.5 4.5" stroke="#000000" stroke-width="1.56" stroke-linecap="round"></path> </g></svg>